<svg width="162" height="48" viewBox="0 0 162 48" fill="none" xmlns="http://www.w3.org/2000/svg">
<path d="M78.592 41.144C76.16 41.144 73.856 40.696 71.68 39.8C69.536 38.904 67.904 37.768 66.784 36.392L67.456 35.768C68.512 37.016 70.032 38.072 72.016 38.936C74.032 39.8 76.208 40.232 78.544 40.232C80.976 40.232 82.96 39.896 84.496 39.224C86.064 38.552 87.216 37.656 87.952 36.536C88.72 35.384 89.104 34.12 89.104 32.744C89.104 31.144 88.72 29.864 87.952 28.904C87.184 27.912 86.16 27.144 84.88 26.6C83.6 26.024 82.208 25.56 80.704 25.208C79.2 24.824 77.68 24.44 76.144 24.056C74.64 23.672 73.248 23.176 71.968 22.568C70.688 21.928 69.664 21.064 68.896 19.976C68.128 18.888 67.744 17.464 67.744 15.704C67.744 14.232 68.128 12.856 68.896 11.576C69.696 10.296 70.912 9.256 72.544 8.456C74.208 7.656 76.352 7.256 78.976 7.256C80.768 7.256 82.528 7.544 84.256 8.12C86.016 8.664 87.504 9.4 88.72 10.328L88.192 11.096C86.848 10.104 85.36 9.368 83.728 8.888C82.096 8.408 80.528 8.168 79.024 8.168C76.688 8.168 74.752 8.52 73.216 9.224C71.68 9.896 70.544 10.808 69.808 11.96C69.072 13.08 68.704 14.344 68.704 15.752C68.704 17.384 69.088 18.696 69.856 19.688C70.624 20.648 71.648 21.416 72.928 21.992C74.208 22.536 75.6 23 77.104 23.384C78.64 23.736 80.16 24.12 81.664 24.536C83.168 24.92 84.56 25.432 85.84 26.072C87.12 26.68 88.144 27.512 88.912 28.568C89.68 29.624 90.064 31.016 90.064 32.744C90.064 34.216 89.664 35.592 88.864 36.872C88.064 38.152 86.816 39.192 85.12 39.992C83.424 40.76 81.248 41.144 78.592 41.144ZM99.9321 24.44H118.7V25.352H99.9321V24.44ZM100.172 41H99.2121V7.4H120.86V8.312H100.172V41ZM142.072 41.144C138.072 41.144 134.904 39.96 132.568 37.592C130.264 35.224 129.112 31.672 129.112 26.936V7.4H130.072V26.888C130.072 31.368 131.112 34.712 133.192 36.92C135.304 39.128 138.264 40.232 142.072 40.232C145.88 40.232 148.824 39.128 150.904 36.92C153.016 34.712 154.072 31.368 154.072 26.888V7.4H155.032V26.936C155.032 31.672 153.864 35.224 151.528 37.592C149.224 39.96 146.072 41.144 142.072 41.144Z" fill="#F0F0F0"/>
<path d="M25.9443 0.609509C21.5952 2.0626 18.5774 6.6783 19.11 10.9521C19.3763 12.8326 20.5301 15.4823 21.5952 16.9354C22.749 18.3885 23.9029 21.1237 24.1691 23.0042C25.1455 30.0987 33.8436 30.0987 34.82 23.0042C35.0862 21.1237 36.2401 18.3885 37.3052 17.0209C44.0507 8.30234 36.4176 -2.72405 25.9443 0.609509ZM34.3762 3.43021C35.53 4.11402 36.8614 5.99449 37.4827 7.44758C38.2815 9.84091 38.104 10.7811 35.9738 14.884C34.5537 17.4483 32.7786 19.6706 31.891 19.8416C30.6484 20.098 30.3821 19.4142 30.3821 15.9097C30.3821 13.1745 30.8259 11.294 31.7135 10.6102C33.4886 9.24257 32.7786 8.55877 29.4058 8.38782C26.8318 8.21686 25.7668 9.92638 27.7194 11.0376C29.1395 11.8923 28.8733 20.0125 27.3644 20.0125C26.033 20.0125 22.039 14.5421 21.2402 11.5504C20.5301 8.90067 22.749 4.28497 25.323 3.08831C28.1632 1.7207 31.891 1.89165 34.3762 3.43021ZM33.0448 23.859C33.0448 24.7992 32.0685 25.1411 29.4946 25.1411C26.9206 25.1411 25.9443 24.7992 25.9443 23.859C25.9443 22.9187 26.9206 22.5768 29.4946 22.5768C32.0685 22.5768 33.0448 22.9187 33.0448 23.859Z" fill="#F0F0F0"/>
<path d="M37.0388 31.6073C34.1098 33.4878 31.2696 35.0263 30.737 35.0263C30.2045 35.0263 26.5654 33.6587 22.6601 32.0347C14.0507 28.4447 10.7667 28.3592 4.02116 31.2654C-2.4581 34.0861 -0.594206 34.9409 6.50635 32.4621C11.1217 30.7525 12.2756 30.6671 15.2933 31.5218C22.3939 33.5732 30.382 37.5051 30.382 38.9582C30.382 40.4968 28.9619 40.4113 21.3288 38.1035C17.8673 37.0778 17.0684 36.9923 17.0684 37.9325C17.0684 39.1292 25.7666 41.8644 29.3169 41.8644C31.2696 41.8644 33.4885 39.0437 32.6897 37.6761C31.9796 36.6504 44.2281 29.6414 45.4707 30.3252C45.9145 30.5816 46.3582 31.3509 46.3582 31.8637C46.2695 33.1459 28.5181 46.1382 26.743 46.1382C26.0329 46.1382 21.8613 44.9415 17.4235 43.5739C8.45901 40.6677 6.32884 40.7532 1.89099 44.4287C-1.57053 47.3349 0.0270936 47.9332 4.19867 45.2834C7.74895 42.9756 10.1454 43.1466 18.6661 46.1382C27.5418 49.2153 27.453 49.2153 39.3464 40.4113C47.5121 34.3425 48.2221 33.6587 47.9559 31.2654C47.5121 27.248 43.7843 27.3335 37.0388 31.6073Z" fill="#F0F0F0"/>
</svg>
